<?xml version="1.0" encoding="UTF-8" standalone="no"?>
<!-- Created with Inkscape (http://www.inkscape.org/) -->

<svg
   xmlns:dc="http://purl.org/dc/elements/1.1/"
   xmlns:cc="http://creativecommons.org/ns#"
   xmlns:rdf="http://www.w3.org/1999/02/22-rdf-syntax-ns#"
   xmlns:svg="http://www.w3.org/2000/svg"
   xmlns="http://www.w3.org/2000/svg"
   xmlns:xlink="http://www.w3.org/1999/xlink"
   version="1.2"
   width="64"
   height="64"
   id="svg2985">
  <defs
     id="defs2987">
    <linearGradient
       id="linearGradient3824">
      <stop
         id="stop3826"
         style="stop-color:#803300;stop-opacity:1"
         offset="0" />
      <stop
         id="stop3828"
         style="stop-color:#803300;stop-opacity:0"
         offset="1" />
    </linearGradient>
    <linearGradient
       x1="10.139594"
       y1="43.352608"
       x2="5.090909"
       y2="46.636364"
       id="linearGradient3830"
       xlink:href="#linearGradient3824"
       gradientUnits="userSpaceOnUse" />
  </defs>
  <metadata
     id="metadata2990">
    <rdf:RDF>
      <cc:Work
         rdf:about="">
        <dc:format>image/svg+xml</dc:format>
        <dc:type
           rdf:resource="http://purl.org/dc/dcmitype/StillImage" />
        <dc:title></dc:title>
      </cc:Work>
    </rdf:RDF>
  </metadata>
  <g
     id="layer1">
    <g
       id="g3007">
      <path
         d="m 33.454546,17.181818 a 16.454546,16.09091 0 1 1 -32.90909197,0 16.454546,16.09091 0 1 1 32.90909197,0 z"
         transform="matrix(1,0,0,1.2316384,1.4545455,-0.25269618)"
         id="path2993"
         style="fill:#aa4400" />
      <path
         d="m 59.454544,33.909092 a 16.636364,15.727273 0 1 1 -33.272728,0 16.636364,15.727273 0 1 1 33.272728,0 z"
         transform="matrix(1.2295082,0,0,1,-10.19076,8.1818182)"
         id="path2995"
         style="fill:#aa4400" />
      <path
         d="m 19.090909,3.4545455 2.363637,-0.7272727 2.363636,-1e-7 3.090909,1.6363637 L 30,7.8181818 l 2.545455,3.8181822 1.090909,3.454545 1.818181,3.818182 1.636364,2.727272 1.454545,1.454546 2.545456,2.181818 4.363635,1.818182 2.727273,0.545454 5.09091,2.000001 3.272726,1.818182 2.363637,2.90909 -26,-6"
         id="path3003"
         style="fill:#aa4400;stroke:#aa4400" />
      <path
         d="m 2.7272727,19.636364 0,6.181818 2,5.818182 4,5.636363 3.6363633,3.636364 4.545455,3.999999 5.818182,4.545455 6.545454,4 9.818183,3.454546 -16.181819,-17.272727"
         id="path3005"
         style="fill:#aa4400;stroke:#aa4400" />
    </g>
  </g>
  <g
     id="layer2"
     style="display:inline">
    <g
       transform="translate(-0.36363636,-0.54545454)"
       id="g3025">
      <g
         id="g3022">
        <path
           d="m 40.24128,58.702322 c -2.683544,-0.295336 -7.123876,0.677874 -9.714007,-0.53794 -2.044702,-0.959786 -6.035662,-3.28054 -7.987378,-4.644686 C 20.161975,51.857658 18.08735,50.03518 14.09826,46.104045 10.210035,42.272311 9.3057557,41.20786 6.8455317,37.566676 4.5982697,34.24068 3.3040547,31.738954 2.3795247,28.933856 L 1.6103117,26.6 1.7520467,23.706396 c 0.348822,-7.121397 2.572711,-12.681798 6.566203,-16.4175137 2.2547953,-2.109251 4.5669583,-3.381944 7.7832603,-4.28417 l 1.574237,-0.4416 -0.868735,-0.436102 c -0.709271,-0.3560511 -0.09854,1.102033 -0.926987,1.350242 -0.392784,0.11768 -1.463519,0.017472 -2.101635,0.4439795 -0.638115,0.426508 -1.489085,1.9892443 -2.168821,2.4171903 -1.6952565,1.067294 -1.6138333,2.4861531 -2.6244823,3.9847699 -1.27379,1.888811 -1.719933,2.955546 -2.935063,6.510634 l -1.100844,3.220719 0.113862,2.757027 c 0.06262,1.516366 0.231754,3.56182 0.375844,4.545455 0.237195,1.619222 0.391954,2.046458 1.635726,4.5157 1.479953,2.938129 2.609226,4.620195 5.4526593,8.121802 3.076051,3.788069 5.71101,6.280422 10.181818,9.630774 4.252296,3.186604 5.175831,3.895702 7.837811,5.125591 5.18828,2.397091 10.056629,3.315737 12.563214,3.833947 2.172874,0.449219 4.017653,-0.379415 4.281342,-0.27413 0.678811,0.271031 0.127438,-1.041269 -0.805453,-0.64474 -0.892886,0.379526 -4.109177,1.692838 -6.569713,1.422045 z m 4.824987,0.165955 c -0.539825,-0.184875 -5.576559,-0.254608 -5.576559,-0.254608 0.07093,0.277943 0.804509,-0.96712 0.806165,-0.59866 l 0.0055,1.230491 2.850764,-0.207208 c 1.88042,-0.136678 2.783422,-0.166863 2.492642,-0.266445 z m -6.232176,0.06207 c -0.131251,-0.05252 -0.288069,-0.04606 -0.348485,0.01435 -0.06042,0.06042 0.111252,-0.314447 0.302918,-0.322346 0.211809,-0.0087 0.190609,0.366026 0.04557,0.307996 z M 9.408455,8.6073551 c -0.2720207,0.8256134 1.364681,-1.4343608 3.573363,-2.8252628 2.494824,-1.571097 2.785722,-1.93043 0.963291,-1.18991 -1.643935,0.66799 -3.074713,1.563884 -4.6582653,2.916812 -1.370335,1.170762 -1.4107848,1.2277818 -1.108185,1.562151 0.416589,0.460326 1.4848215,-1.2378207 1.2297963,-0.4637902 z"
           id="path3018"
           style="fill:#803300;stroke:#aa4400;stroke-width:1" />
      </g>
      <path
         d="M 40.019473,59.469268 C 36.450357,59.92437 33.017858,59.682294 30.072727,58.207154 27.374178,56.85552 23.660493,54.490816 21.516049,52.898087 18.336393,50.536482 12.188628,44.80455 9.7976269,41.797415 6.8832439,38.13203 2.76424,33.098526 2.0832688,29.089949 L 1.4269646,25.670809 1.2553416,23.726313 C 0.97300559,20.527434 2.3204157,15.984292 3.6443677,12.967469 4.3533777,11.351885 5.9969559,9.2393591 7.1539199,7.9261531 8.1752359,6.7669141 9.8056775,4.3128274 11.299098,3.4763454 12.47597,2.8171664 14.708105,1.6024548 15.322217,1.6007968 15.522672,1.6002548 19.962169,0.76205351 18.317089,1.6454538 17.73097,1.9601976 15.909898,2.505222 14.646942,3.107967 13.083076,3.854332 10.619283,7.3261715 9.7384439,8.2070105 8.0076238,9.9378304 6.1721461,12.089113 5.4184938,16.839972 l -0.502733,3.169118 -0.304057,3.279187 c -0.3888703,4.193881 0.9934346,5.588969 1.8650616,7.4861 2.024988,4.407463 5.4534756,7.890228 9.7620846,12.332167 2.411668,2.486298 4.142196,4.969669 7.988974,7.773534 3.326444,2.4246 4.573924,3.261728 7.289402,4.552488 4.2803,2.034576 6.803516,2.107964 12.373487,1.637301 2.122694,-0.179368 7.940971,-0.912626 8.055272,-0.817764 0.668639,0.554922 -2.574293,2.177169 -3.769224,2.536643 -0.843923,0.25388 -6.699064,0.881353 -8.157288,0.680522 z m -0.354497,-0.215022 c -0.148656,-0.225 -0.465454,0.04678 -0.703994,0.01471 -0.413367,-0.05558 -0.888255,-0.480407 -0.888255,-0.794616 0,-0.08089 0.225,-0.152606 0.5,-0.159373 0.632771,-0.01556 0.500049,-0.07158 -2.318182,-0.978314 -3.40316,-1.094922 -7.81819,-3.365786 -11,-5.657829 C 19.829747,47.771022 16.639431,45.016342 13.986961,41.949818 10.372245,37.77084 8.6023729,35.243802 6.8826729,31.806249 5.5183979,29.079164 4.7970274,28.216033 4.5398194,25.145454 4.1405324,20.378705 4.225576,19.646417 5.39354,16.372727 6.617065,12.943306 7.6538349,11.737367 8.4198039,10.624068 9.0417179,9.7201471 11.309432,6.2363637 10.991767,6.2363637 c -0.119528,0 -2.6677201,3.1498704 -2.9404271,2.8886004 l -0.495832,-0.475037 -0.904355,1.231577 C 3.2525587,13.235202 2.0466124,17.494536 2.4016199,23.289429 l 0.142483,2.325792 0.331311,2.656961 c 0.355794,2.853303 2.271319,5.453592 4.265401,8.460983 2.386667,3.599473 3.5453751,4.978568 7.3762331,8.779191 3.713317,3.684009 5.877632,5.60272 8.203781,7.272826 2.59246,1.861311 7.121302,4.404767 9.586836,5.384092 2.12973,0.845942 6.08169,0.286684 7.19633,0.324993 0.406681,0.01398 0.41586,1.145746 0.160981,0.759979 z m 7.200169,-0.706257 c -0.3164,-1.813405 -1.674525,-0.902756 -1.086046,0.114411 0.215212,0.371987 0.467975,-0.93079 0.467975,-0.672586 0,0.389137 0.71691,1.124653 0.618071,0.558175 z M 15.057653,2.5155526 c 1.076478,-0.461433 1.996849,-0.4751154 0.96962,-0.2831534 -0.820554,0.15334 -3,0.5243756 -3,0.9807726 0,0.419015 1.014844,-0.2623122 2.03038,-0.6976192 z"
         id="path3020"
         style="fill:url(#linearGradient3830);fill-opacity:1;stroke:#803300;stroke-width:1" />
    </g>
    <flowRoot
       transform="matrix(2.9266128,0,0,2.9559288,-35.771385,-35.125795)"
       id="flowRoot3030"
       xml:space="preserve"
       style="font-size:4.75990629px;text-align:start;letter-spacing:0.00339993px;text-anchor:start"><flowRegion
         id="flowRegion3032"><rect
           width="19.150009"
           height="8.2950954"
           x="12.909091"
           y="15.272727"
           id="rect3034"
           style="font-size:4.75990629px;font-style:oblique;font-variant:normal;font-weight:normal;font-stretch:normal;text-align:start;letter-spacing:0.00339993px;text-anchor:start;baseline-shift:baseline;font-family:Lucida Sans Typewriter;-inkscape-font-specification:Lucida Sans Typewriter Oblique" /></flowRegion><flowPara
         id="flowPara3036">S1B3</flowPara></flowRoot>    <flowRoot
       id="flowRoot3038"
       xml:space="preserve"
       style="font-size:6px;font-style:normal;font-weight:normal;line-height:125%;letter-spacing:0px;word-spacing:0px;fill:#000000;fill-opacity:1;stroke:none;font-family:Sans"><flowRegion
         id="flowRegion3040"><rect
           width="54.363636"
           height="7.090909"
           x="7.2727275"
           y="37.090908"
           id="rect3042" /></flowRegion><flowPara
         id="flowPara3044" /></flowRoot>    <path
       d="m 42.641716,28.370097 3.727272,0.818182 3.181819,1.272727 3.545454,2.181818 2.818182,2.727273 -0.272727,1.181817 -1.181818,0.181819 -3,-2.454545 -4.181819,-1.909091 -3.818181,-1.090909 -0.727273,-3.363637"
       id="path3046"
       style="fill:#d45500;stroke:#d45500" />
    <flowRoot
       transform="translate(-7.1818182,-30.909091)"
       id="flowRoot3048"
       xml:space="preserve"
       style="font-size:13px;font-style:normal;font-weight:normal;line-height:125%;letter-spacing:0.41px;word-spacing:0px;fill:#552200;fill-opacity:1;stroke:none;font-family:Sans"><flowRegion
         id="flowRegion3050"><rect
           width="42.81818"
           height="18.181818"
           x="9.909091"
           y="41.363636"
           id="rect3052"
           style="font-size:13px;letter-spacing:0.41px;fill:#552200" /></flowRegion><flowPara
         id="flowPara3054">S1B3</flowPara></flowRoot>  </g>
</svg>
